<svg viewBox="0 0 934 680.42" xmlns="http://www.w3.org/2000/svg"><path d="m287.43 680.42c-38.8 0-76.44-7.6-111.88-22.59-34.23-14.48-64.97-35.2-91.36-61.6-26.4-26.4-47.12-57.14-61.6-91.36-14.99-35.43-22.59-73.08-22.59-111.88s7.6-76.44 22.59-111.88c14.48-34.23 35.2-64.97 61.6-91.36 26.4-26.4 57.14-47.12 91.36-61.6 35.44-14.99 73.08-22.59 111.88-22.59 9.9 0 19.91.51 29.76 1.53 2.38.24 4.76.37 7.12.37 17.44 0 34.35-6.56 47.27-18.53 25.98-24.07 55.59-43.8 88.02-58.66 43.86-20.09 90.74-30.27 139.35-30.27 45.23 0 89.11 8.86 130.42 26.33 39.9 16.87 75.73 41.03 106.5 71.8s54.93 66.6 71.8 106.5c17.47 41.31 26.33 85.19 26.33 130.42 0 53.79-13.05 107.27-37.75 154.65-23.55 45.18-57.75 85.07-98.9 115.37-1.15.84-2.27 1.73-3.36 2.64-48.15 40.24-109.26 62.39-172.09 62.39-2.88 0-5.82-.05-8.73-.14-.74-.02-1.48-.04-2.22-.04-.68 0-1.36 0-2.03.03-3.32.1-6.67.15-9.96.15-41.94 0-84.74-8.18-123.79-23.64-8.25-3.27-16.94-4.89-25.62-4.89-10.88 0-21.73 2.55-31.63 7.61-40.04 20.45-85.16 31.25-130.49 31.25z"/></svg>